HIERARCHY
ROOT Hips
{
	OFFSET -246.377396 91.733124 -540.268188
	CHANNELS 6 Xposition Yposition Zposition Zrotation Yrotation Xrotation 
	JOINT LeftUpLeg
	{
		OFFSET 0.103454 1.857841 10.548504
		CHANNELS 3 Zrotation Yrotation Xrotation
		JOINT LeftLeg
		{
			OFFSET 43.499992 -0.000061 0.000000
			CHANNELS 3 Zrotation Yrotation Xrotation
			JOINT LeftFoot
			{
				OFFSET 42.372196 0.000008 -0.000002
				CHANNELS 3 Zrotation Yrotation Xrotation
				JOINT LeftToe
				{
					OFFSET 17.300022 0.000011 0.000012
					CHANNELS 3 Zrotation Yrotation Xrotation
					End Site
					{
						OFFSET 0.000000 0.000000 0.000000
					}
				}
			}
		}
	}
	JOINT RightUpLeg
	{
		OFFSET 0.103458 1.857820 -10.548491
		CHANNELS 3 Zrotation Yrotation Xrotation
		JOINT RightLeg
		{
			OFFSET 43.500046 0.000015 0.000006
			CHANNELS 3 Zrotation Yrotation Xrotation
			JOINT RightFoot
			{
				OFFSET 42.372269 -0.000046 0.000017
				CHANNELS 3 Zrotation Yrotation Xrotation
				JOINT RightToe
				{
					OFFSET 17.300032 0.000011 0.000015
					CHANNELS 3 Zrotation Yrotation Xrotation
					End Site
					{
						OFFSET 0.000000 0.000000 0.000000
					}
				}
			}
		}
	}
	JOINT Spine
	{
		OFFSET 6.901962 -2.603707 -0.000004
		CHANNELS 3 Zrotation Yrotation Xrotation
		JOINT Spine1
		{
			OFFSET 12.588104 -0.000004 -0.000001
			CHANNELS 3 Zrotation Yrotation Xrotation
			JOINT Spine2
			{
				OFFSET 12.343199 -0.000026 0.000003
				CHANNELS 3 Zrotation Yrotation Xrotation
				JOINT Neck
				{
					OFFSET 25.832890 0.000004 -0.000006
					CHANNELS 3 Zrotation Yrotation Xrotation
					JOINT Head
					{
						OFFSET 11.766623 0.000031 0.000004
						CHANNELS 3 Zrotation Yrotation Xrotation
						End Site
						{
							OFFSET 0.000000 0.000000 0.000000
						}
					}
				}
				JOINT LeftShoulder
				{
					OFFSET 19.745897 -1.480345 6.000100
					CHANNELS 3 Zrotation Yrotation Xrotation
					JOINT LeftArm
					{
						OFFSET 11.284126 0.000003 -0.000015
						CHANNELS 3 Zrotation Yrotation Xrotation
						JOINT LeftForeArm
						{
							OFFSET 33.000057 -0.000023 0.000027
							CHANNELS 3 Zrotation Yrotation Xrotation
							JOINT LeftHand
							{
								OFFSET 25.199987 0.000051 0.000021
								CHANNELS 3 Zrotation Yrotation Xrotation
								End Site
								{
									OFFSET 0.000000 0.000000 0.000000
								}
							}
						}
					}
				}
				JOINT RightShoulder
				{
					OFFSET 19.746086 -1.480362 -6.000076
					CHANNELS 3 Zrotation Yrotation Xrotation
					JOINT RightArm
					{
						OFFSET 11.284140 0.000004 -0.000015
						CHANNELS 3 Zrotation Yrotation Xrotation
						JOINT RightForeArm
						{
							OFFSET 33.000084 -0.000023 0.000011
							CHANNELS 3 Zrotation Yrotation Xrotation
							JOINT RightHand
							{
								OFFSET 25.199789 0.000148 0.000422
								CHANNELS 3 Zrotation Yrotation Xrotation
								End Site
								{
									OFFSET 0.000000 0.000000 0.000000
								}
							}
						}
					}
				}
			}
		}
	}
}
MOTION
Frames: 7
Frame Time: 0.033333
-196.830093 89.223312 276.442413 103.204589 4.620887 142.029098 -169.980596 6.563597 176.693811 -18.748852 -3.937244 -8.851159 81.508534 6.466438 1.193376 21.454558 0.003095 0.000000 151.648300 2.601589 -172.717261 -42.753641 0.981804 1.655928 61.879793 0.212940 3.608549 21.454560 -0.003107 -0.000017 10.794994 -0.882706 -0.368300 11.584673 -1.724092 -0.823287 11.266441 -1.728895 -0.812848 15.556521 8.855812 11.331589 -27.771868 4.343912 10.471503 176.720981 -85.189808 1.653025 13.556275 40.125241 63.896269 -87.267264 -6.210995 2.618633 -39.501965 -4.384312 77.274704 -155.989827 79.595726 25.911856 23.814472 -33.779018 -56.710405 -96.896096 2.347239 -2.819636 -39.787208 4.576514 -65.030156 
-194.755096 89.038460 277.286407 102.644998 4.421745 140.184005 -168.510152 7.535298 176.495817 -17.485487 -3.602760 -9.709100 82.510044 6.949166 0.864988 21.454553 0.003090 -0.000000 153.870870 1.519298 -173.816990 -26.214263 2.601759 0.454614 60.032370 1.275821 3.947697 21.454558 -0.003116 -0.000016 10.643448 -0.877107 -0.385794 11.281708 -1.712400 -0.855410 10.963501 -1.717405 -0.845050 15.489763 9.093051 11.629615 -27.594010 4.560637 10.706321 -179.629577 -84.895276 -2.018279 13.702408 40.369983 63.852747 -86.938596 -6.300999 2.610420 -39.440108 -4.255109 77.258168 -156.306994 79.473049 25.592137 24.007662 -33.633054 -57.255379 -96.690849 2.378668 -2.812636 -39.808245 5.078870 -64.868649 
-192.690598 88.912270 278.171204 101.905097 4.144970 138.445093 -166.820335 8.521108 176.628583 -15.345837 -3.203780 -10.639153 83.043653 7.507295 0.586301 21.454553 0.003096 0.000000 155.762519 0.556195 -177.384411 -10.570548 4.587808 1.230347 59.178965 0.490235 3.573928 21.454558 -0.003110 -0.000017 10.433216 -0.840836 -0.350135 10.860307 -1.645085 -0.777756 10.542102 -1.649618 -0.767799 15.047409 9.203651 11.539640 -27.243745 4.649882 10.609779 -176.385182 -84.555652 -5.284332 13.853907 40.529373 63.662472 -86.709477 -6.373361 2.605380 -39.241640 -3.525747 76.948508 -156.377304 79.228569 25.525663 23.870237 -33.246841 -57.858874 -96.160977 2.436643 -2.792952 -39.828544 5.575699 -63.932019 
-190.670807 88.728104 279.053314 100.978698 3.592935 136.833100 -165.488886 9.572997 176.756212 -13.199450 -2.717068 -11.437638 83.361093 7.987913 0.338268 21.454551 0.003090 -0.000001 154.163558 -0.787202 178.729084 -2.935572 4.311017 3.115810 64.144233 -1.154302 3.357384 21.454558 -0.003106 -0.000017 10.134683 -0.800405 -0.300900 10.262081 -1.570976 -0.671662 9.943873 -1.574865 -0.662157 14.518699 9.388827 11.389061 -27.031158 4.459664 10.585472 -174.220395 -84.349858 -7.465749 14.085297 40.697856 63.608022 -86.477121 -6.449205 2.600451 -38.732589 -2.922951 76.800669 -156.266286 79.023035 25.642615 23.382063 -32.872317 -58.420930 -95.731672 2.512978 -2.779050 -39.771802 5.672680 -63.286573 
-188.697098 88.423233 279.842194 100.178999 2.941773 134.937600 -164.663389 10.849105 176.585375 -11.907768 -2.243260 -12.215919 83.912740 8.444265 0.060032 21.454551 0.003093 -0.000001 151.160761 -1.774399 -179.971673 -2.644193 4.832586 5.716855 70.735222 -1.600066 8.377175 21.454557 -0.003108 -0.000015 9.872851 -0.777262 -0.194396 9.736780 -1.535435 -0.453547 9.418570 -1.538013 -0.444250 13.708762 9.094064 11.267720 -27.137228 4.625663 10.413711 -173.433243 -83.728304 -8.255615 14.240981 40.352112 63.356801 -86.311892 -6.498551 2.597671 -38.203157 -2.067132 77.099312 -155.910884 79.104403 26.002277 22.124082 -32.599434 -58.939827 -95.054561 2.667823 -2.759532 -39.239184 5.302484 -62.899315 
-186.632706 88.011833 280.726196 99.687335 2.736382 133.491307 -163.635186 11.808198 176.566660 -11.473597 -1.973661 -12.855032 84.857280 8.808215 -0.184710 21.454550 0.003089 -0.000001 148.167020 -2.760690 -175.586542 -6.902835 4.307878 6.775476 66.925288 -3.029171 5.795464 21.454562 -0.003111 -0.000018 9.810878 -0.671166 -0.166124 9.611797 -1.326224 -0.387433 9.293612 -1.328410 -0.379412 12.058493 9.070501 11.056319 -26.731004 4.565899 10.329554 -172.733995 -83.493407 -8.960401 14.455250 40.519564 63.071258 -86.128569 -6.586931 2.594739 -38.297837 -1.123481 77.946959 -157.257592 79.156538 24.632177 19.957049 -32.098846 -59.693121 -94.008039 2.870239 -2.726797 -37.935103 5.327669 -60.501098 
-184.457306 87.601143 281.810303 99.395413 2.780295 132.914593 -162.026075 12.429307 175.992993 -10.929617 -1.585039 -12.663437 85.424705 8.629069 -0.354573 21.454557 0.003094 0.000001 146.871648 -3.383105 -172.860531 -10.015800 2.626732 6.704964 62.960096 -4.023968 2.633490 21.454562 -0.003117 -0.000019 9.824651 -0.482370 -0.246556 9.639003 -0.942579 -0.532448 9.320865 -0.945635 -0.526738 11.045258 9.000215 10.695462 -27.116683 4.284231 10.125829 -175.224610 -83.495518 -6.444603 14.609486 40.700933 63.298211 -85.872895 -6.669594 2.589271 -38.503330 -0.733273 78.277786 -160.241811 79.358554 21.595434 18.138455 -31.769966 -60.769771 -92.624113 3.098663 -2.680799 -37.461839 6.663082 -58.057311 
